<?xml version="1.0" encoding="UTF-8" standalone="no"?>
<!-- Created with Inkscape (http://www.inkscape.org/) -->

<svg
   xmlns:dc="http://purl.org/dc/elements/1.1/"
   xmlns:cc="http://creativecommons.org/ns#"
   xmlns:rdf="http://www.w3.org/1999/02/22-rdf-syntax-ns#"
   xmlns:svg="http://www.w3.org/2000/svg"
   xmlns="http://www.w3.org/2000/svg"
   xmlns:sodipodi="http://sodipodi.sourceforge.net/DTD/sodipodi-0.dtd"
   xmlns:inkscape="http://www.inkscape.org/namespaces/inkscape"
   version="1.1"
   width="317.53387"
   height="317.50354"
   id="svg5004"
   inkscape:version="0.48.4 r9939"
   sodipodi:docname="Golden_State_Warriors_logo[1].svg">
  <sodipodi:namedview
     pagecolor="#ffffff"
     bordercolor="#666666"
     borderopacity="1"
     objecttolerance="10"
     gridtolerance="10"
     guidetolerance="10"
     inkscape:pageopacity="0"
     inkscape:pageshadow="2"
     inkscape:window-width="1264"
     inkscape:window-height="1361"
     id="namedview3094"
     showgrid="false"
     fit-margin-top="0"
     fit-margin-left="0"
     fit-margin-right="0"
     fit-margin-bottom="0"
     inkscape:zoom="1.8818065"
     inkscape:cx="154.97076"
     inkscape:cy="88.702321"
     inkscape:window-x="1280"
     inkscape:window-y="0"
     inkscape:window-maximized="0"
     inkscape:current-layer="svg5004" />
  <defs
     id="defs5006" />
  <metadata
     id="metadata5009">
    <rdf:RDF>
      <cc:Work
         rdf:about="">
        <dc:format>image/svg+xml</dc:format>
        <dc:type
           rdf:resource="http://purl.org/dc/dcmitype/StillImage" />
        <dc:title></dc:title>
      </cc:Work>
    </rdf:RDF>
  </metadata>
  <g
     transform="matrix(7.5832608,0,0,-7.5832608,158.77831,307.47848)"
     id="g3267"
     style="fill:#1a64b7;fill-opacity:1">
    <path
       d="m 0,0 c -10.833,0 -19.615,8.782 -19.615,19.618 0,10.834 8.782,19.618 19.615,19.618 10.835,0 19.616,-8.785 19.616,-19.618 C 19.616,8.782 10.835,0 0,0 m -0.002,40.547 c -11.562,0 -20.936,-9.369 -20.936,-20.935 0,-11.563 9.374,-20.934 20.936,-20.934 11.563,0 20.937,9.371 20.937,20.934 0,11.566 -9.374,20.935 -20.937,20.935"
       id="path3269"
       style="fill:#1a64b7;fill-opacity:1;fill-rule:nonzero;stroke:none"
       inkscape:connector-curvature="0" />
  </g>
  <g
     transform="matrix(7.5832608,0,0,-7.5832608,71.495777,83.539446)"
     id="g3271"
     style="fill:#1a64b7;fill-opacity:1">
    <path
       d="m 0,0 c 0,0 11.664,-15.586 30.212,-19.133 l -3.346,-0.959 c 0,0 -11.593,2.683 -26.776,19.635"
       id="path3273"
       style="fill:#1a64b7;fill-opacity:1;fill-rule:nonzero;stroke:none"
       inkscape:connector-curvature="0" />
  </g>
  <g
     transform="matrix(7.5832608,0,0,-7.5832608,29.78026,249.95866)"
     id="g3275"
     style="fill:#1a64b7;fill-opacity:1">
    <path
       d="m 0,0 c 0,0 15.092,2.487 31.729,2.082 l 3.332,0.715 -1.798,-3.926 c 0,0 -17.556,0.601 -30.558,-0.762 -2.317,0.318 -2.013,1.166 -2.013,1.166 L 0,0"
       id="path3277"
       style="fill:#1a64b7;fill-opacity:1;fill-rule:nonzero;stroke:none"
       inkscape:connector-curvature="0" />
  </g>
  <g
     transform="matrix(7.5832608,0,0,-7.5832608,46.727331,266.1778)"
     id="g3279"
     style="fill:#1a64b7;fill-opacity:1">
    <path
       d="m 0,0 c 0,0 19.672,0.857 29.656,-0.469 0.264,-0.035 0.81,0.899 0.81,0.899 0,0 -7.246,1.001 -29.426,0.228 C -2.557,0.532 0,0 0,0"
       id="path3281"
       style="fill:#1a64b7;fill-opacity:1;fill-rule:nonzero;stroke:none"
       inkscape:connector-curvature="0" />
  </g>
  <g
     transform="matrix(7.5832608,0,0,-7.5832608,64.249941,96.309716)"
     id="g3283"
     style="fill:#1a64b7;fill-opacity:1">
    <path
       d="m 0,0 c -3.589,-8.498 -7.825,-11.889 -7.825,-11.889 l 0.244,-1.713 c 0,0 4.672,6.058 7.581,12.83 C 1.607,2.966 0,0 0,0"
       id="path3285"
       style="fill:#1a64b7;fill-opacity:1;fill-rule:nonzero;stroke:none"
       inkscape:connector-curvature="0" />
  </g>
  <g
     transform="matrix(7.5832608,0,0,-7.5832608,66.656929,78.615666)"
     id="g3287"
     style="fill:#1a64b7;fill-opacity:1">
    <path
       d="m 0,0 -0.507,-0.125 c 0,0 -0.495,-24.239 -0.173,-26.938 0.03,-0.239 1.206,-0.022 1.206,-0.022 0,0 0.401,-1.643 1.174,-0.959 -0.68,8.59 -0.844,28.546 -0.844,28.546 l -0.843,0 L 0,0"
       id="path3289"
       style="fill:#1a64b7;fill-opacity:1;fill-rule:nonzero;stroke:none"
       inkscape:connector-curvature="0" />
  </g>
  <g
     transform="matrix(7.5832608,0,0,-7.5832608,75.506594,81.890116)"
     id="g3291"
     style="fill:#1a64b7;fill-opacity:1">
    <path
       d="M 0,0 0.57,0.493 1.179,0.219 c 0,0 0.608,-22.848 1.702,-29.255 l -0.593,0.047 c 0,0 -1.19,0.069 -1.271,0.817 C 0.539,-23.894 0,0 0,0"
       id="path3293"
       style="fill:#1a64b7;fill-opacity:1;fill-rule:nonzero;stroke:none"
       inkscape:connector-curvature="0" />
  </g>
  <g
     transform="matrix(7.5832608,0,0,-7.5832608,50.991429,253.74725)"
     id="g3295"
     style="fill:#1a64b7;fill-opacity:1">
    <path
       d="M 0,0 -0.411,0.072 1.28,9.608 1.689,9.535 0,0 z"
       id="path3297"
       style="fill:#1a64b7;fill-opacity:1;fill-rule:nonzero;stroke:none"
       inkscape:connector-curvature="0" />
  </g>
  <g
     transform="matrix(7.5832608,0,0,-7.5832608,39.582383,252.37474)"
     id="g3299"
     style="fill:#1a64b7;fill-opacity:1">
    <path
       d="M 0,0 -0.405,0.076 3.001,19.295 3.412,19.225 0,0 z"
       id="path3301"
       style="fill:#1a64b7;fill-opacity:1;fill-rule:nonzero;stroke:none"
       inkscape:connector-curvature="0" />
  </g>
  <g
     transform="matrix(7.5832608,0,0,-7.5832608,30.365688,242.82736)"
     id="g3303"
     style="fill:#1a64b7;fill-opacity:1">
    <path
       d="M 0,0 -0.315,0.407 2.044,13.888 2.628,14.805 0,0 z"
       id="path3305"
       style="fill:#1a64b7;fill-opacity:1;fill-rule:nonzero;stroke:none"
       inkscape:connector-curvature="0" />
  </g>
  <g
     transform="matrix(7.5832608,0,0,-7.5832608,105.45058,245.79096)"
     id="g3307"
     style="fill:#1a64b7;fill-opacity:1">
    <path
       d="M 0,0 0.395,0.123 -3.374,12.102 -3.05,9.594 0,0 z"
       id="path3309"
       style="fill:#1a64b7;fill-opacity:1;fill-rule:nonzero;stroke:none"
       inkscape:connector-curvature="0" />
  </g>
  <g
     transform="matrix(7.5832608,0,0,-7.5832608,116.54871,242.98667)"
     id="g3311"
     style="fill:#1a64b7;fill-opacity:1">
    <path
       d="M 0,0 0.396,0.124 -4.693,16.495 -4.658,14.848 0,0 z"
       id="path3313"
       style="fill:#1a64b7;fill-opacity:1;fill-rule:nonzero;stroke:none"
       inkscape:connector-curvature="0" />
  </g>
  <g
     transform="matrix(7.5832608,0,0,-7.5832608,129.45767,240.62445)"
     id="g3315"
     style="fill:#1a64b7;fill-opacity:1">
    <path
       d="M 0,0 0.396,0.122 -5.106,17.688 -5.786,18.405 0,0 z"
       id="path3317"
       style="fill:#1a64b7;fill-opacity:1;fill-rule:nonzero;stroke:none"
       inkscape:connector-curvature="0" />
  </g>
  <g
     transform="matrix(7.5832608,0,0,-7.5832608,103.77468,120.34107)"
     id="g3319"
     style="fill:#1a64b7;fill-opacity:1">
    <path
       d="m 0,0 5.043,-15.821 0.396,0.128 -4.723,15.013 -0.25,0.25"
       id="path3321"
       style="fill:#1a64b7;fill-opacity:1;fill-rule:nonzero;stroke:none"
       inkscape:connector-curvature="0" />
  </g>
  <g
     transform="matrix(7.5832608,0,0,-7.5832608,122.61453,138.15185)"
     id="g3323"
     style="fill:#1a64b7;fill-opacity:1">
    <path
       d="M 0,0 4.274,-13.481 4.67,-13.356 0.62,-0.534 0.064,0"
       id="path3325"
       style="fill:#1a64b7;fill-opacity:1;fill-rule:nonzero;stroke:none"
       inkscape:connector-curvature="0" />
  </g>
  <g
     transform="matrix(7.5832608,0,0,-7.5832608,166.77338,238.235)"
     id="g3327"
     style="fill:#1a64b7;fill-opacity:1">
    <path
       d="M 0,0 0.396,0.125 -3.006,10.786 -3.56,11.213 0,0 z"
       id="path3329"
       style="fill:#1a64b7;fill-opacity:1;fill-rule:nonzero;stroke:none"
       inkscape:connector-curvature="0" />
  </g>
  <g
     transform="matrix(7.5832608,0,0,-7.5832608,180.11306,237.65715)"
     id="g3331"
     style="fill:#1a64b7;fill-opacity:1">
    <path
       d="M 0,0 0.397,0.126 -2.332,8.768 -2.971,9.344 0,0 z"
       id="path3333"
       style="fill:#1a64b7;fill-opacity:1;fill-rule:nonzero;stroke:none"
       inkscape:connector-curvature="0" />
  </g>
  <g
     transform="matrix(7.5832608,0,0,-7.5832608,174.24513,179.58757)"
     id="g3335"
     style="fill:#1a64b7;fill-opacity:1">
    <path
       d="M 0,0 2.433,-7.614 2.828,-7.491 0.62,-0.469 0.235,-0.246"
       id="path3337"
       style="fill:#1a64b7;fill-opacity:1;fill-rule:nonzero;stroke:none"
       inkscape:connector-curvature="0" />
  </g>
  <g
     transform="matrix(7.5832608,0,0,-7.5832608,191.56609,192.69824)"
     id="g3339"
     style="fill:#1a64b7;fill-opacity:1">
    <path
       d="m 0,0 1.863,-5.897 0.394,0.123 -1.723,5.432 -0.475,0.146"
       id="path3341"
       style="fill:#1a64b7;fill-opacity:1;fill-rule:nonzero;stroke:none"
       inkscape:connector-curvature="0" />
  </g>
  <g
     transform="matrix(7.5832608,0,0,-7.5832608,223.78736,252.6401)"
     id="g3343"
     style="fill:#1a64b7;fill-opacity:1">
    <path
       d="M 0,0 0.397,0.124 -1.467,6.149 -2.163,6.982 0,0 z"
       id="path3345"
       style="fill:#1a64b7;fill-opacity:1;fill-rule:nonzero;stroke:none"
       inkscape:connector-curvature="0" />
  </g>
  <g
     transform="matrix(7.5832608,0,0,-7.5832608,223.00853,209.32682)"
     id="g3347"
     style="fill:#1a64b7;fill-opacity:1">
    <path
       d="M 0,0 1.654,-5.281 2.049,-5.153 0.63,-0.616 0,0 z"
       id="path3349"
       style="fill:#1a64b7;fill-opacity:1;fill-rule:nonzero;stroke:none"
       inkscape:connector-curvature="0" />
  </g>
  <g
     transform="matrix(7.5832608,0,0,-7.5832608,239.11313,219.22977)"
     id="g3351"
     style="fill:#1a64b7;fill-opacity:1">
    <path
       d="M 0,0 1.21,-3.813 1.608,-3.688 0.598,-0.516 0,0 z"
       id="path3353"
       style="fill:#1a64b7;fill-opacity:1;fill-rule:nonzero;stroke:none"
       inkscape:connector-curvature="0" />
  </g>
  <g
     transform="matrix(7.5832608,0,0,-7.5832608,15.053568,214.5441)"
     id="g3355"
     style="fill:#1a64b7;fill-opacity:1">
    <path
       d="M 0,0 -0.492,0.386 0.785,5.371 1.193,5.324 0,0 z"
       id="path3357"
       style="fill:#1a64b7;fill-opacity:1;fill-rule:nonzero;stroke:none"
       inkscape:connector-curvature="0" />
  </g>
  <g
     transform="matrix(7.5832608,0,0,-7.5832608,23.313983,225.16067)"
     id="g3359"
     style="fill:#1a64b7;fill-opacity:1">
    <path
       d="M 0,0 -0.316,0.409 1.154,8.745 1.684,9.512 0,0 z"
       id="path3361"
       style="fill:#1a64b7;fill-opacity:1;fill-rule:nonzero;stroke:none"
       inkscape:connector-curvature="0" />
  </g>
</svg>
